<?xml version="1.0" encoding="UTF-8"?>
<!DOCTYPE svg PUBLIC "-//W3C//DTD SVG 1.1//EN" "http://www.w3.org/Graphics/SVG/1.1/DTD/svg11.dtd">
<svg width="404pt" height="329pt" viewBox="0 0 404 329" version="1.1" xmlns="http://www.w3.org/2000/svg">
  <g id="#000000ff">
    <path fill="#e9e9e9" opacity="1.00" d=" M 141.69 62.63 C 145.67 60.93 149.56 58.70 153.87 58.03 C 178.56 57.96 203.26 58.02 227.95 58.00 C 222.32 69.00 216.69 79.98 211.05 90.97 C 194.81 89.14 178.24 87.82 162.03 90.60 C 153.73 93.39 145.37 98.22 141.14 106.20 C 137.55 112.96 138.88 121.21 142.28 127.76 C 144.58 131.89 146.80 136.49 151.05 138.97 C 155.23 141.51 160.12 142.92 165.01 143.01 C 177.35 143.06 189.69 142.88 202.03 143.08 C 215.68 145.14 228.82 151.56 238.45 161.52 C 259.36 182.19 261.90 219.15 242.78 241.80 C 235.52 250.55 225.70 256.81 215.30 261.19 C 212.31 262.35 209.36 264.05 206.06 264.01 C 179.54 263.98 153.02 264.02 126.50 263.99 C 138.33 239.99 150.16 215.99 162.01 192.00 C 174.67 192.00 187.34 191.99 200.00 192.00 C 193.58 204.67 187.44 217.49 180.83 230.06 C 189.55 234.02 199.67 232.18 207.96 228.01 C 214.31 225.06 220.20 219.89 221.78 212.80 C 223.86 202.60 219.44 191.92 212.24 184.71 C 207.47 180.77 201.15 178.96 195.03 178.98 C 184.03 179.04 173.03 178.96 162.03 179.03 C 156.53 179.15 151.24 177.39 146.12 175.60 C 130.23 169.89 116.54 157.61 110.14 141.87 C 103.97 126.98 103.58 109.59 109.55 94.58 C 115.35 80.08 127.70 69.06 141.69 62.63 Z" />
    <path fill="#e9e9e9" opacity="1.00" d=" M 231.31 59.29 C 231.46 57.84 233.82 57.29 234.32 58.72 C 256.17 102.87 277.92 147.08 299.75 191.24 C 305.97 202.58 311.11 214.47 316.99 225.99 C 304.00 226.01 291.00 226.00 278.01 226.00 C 274.80 219.54 271.84 212.96 268.28 206.69 C 256.94 183.07 245.43 159.55 233.97 136.00 C 219.98 135.99 205.99 136.01 192.01 136.00 C 205.10 110.42 218.22 84.86 231.31 59.29 Z" />
    <path fill="#4b94d2" opacity="1.00" d=" M 111.99 192.13 C 118.98 191.95 125.98 191.95 132.98 192.16 C 120.97 216.10 109.00 240.06 96.99 264.00 C 90.00 264.00 83.00 264.00 76.01 264.00 C 87.99 240.04 100.00 216.09 111.99 192.13 Z" />
    <path fill="#e9e9e9" opacity="1.00" d=" M 136.99 192.13 C 143.99 191.95 150.99 191.95 157.98 192.16 C 145.97 216.10 134.00 240.06 122.00 264.00 C 115.00 264.00 108.00 264.01 101.01 263.99 C 113.00 240.04 124.99 216.08 136.99 192.13 Z" />
    <path fill="#e9e9e9" opacity="1.00" d=" M 281.00 230.00 C 294.00 229.99 307.00 230.00 319.99 230.00 C 322.57 234.99 325.14 239.99 327.71 244.99 C 314.73 245.02 301.74 244.97 288.76 245.02 C 286.12 240.04 283.59 235.01 281.00 230.00 Z" />
    <path fill="#4b94d2" opacity="1.00" d=" M 291.00 249.00 C 304.00 248.99 317.00 249.00 329.99 249.00 C 332.57 253.99 335.14 258.99 337.71 263.99 C 324.71 264.01 311.72 263.99 298.73 264.00 C 296.14 259.01 293.57 254.01 291.00 249.00 Z" />
  </g>
</svg>
